<mxfile host="app.diagrams.net" modified="2022-11-13T16:32:26.601Z" agent="5.0 (Windows NT 10.0; Win64; x64) AppleWebKit/537.36 (KHTML, like Gecko) Chrome/107.0.0.0 Safari/537.36" etag="36kI7sWCq-H6GIfYnKJl" version="20.5.3" type="github">
  <diagram id="RjM9AgiMXcV2eiZAFD_S" name="Sida-1">
    <mxGraphModel dx="2249" dy="697" grid="1" gridSize="10" guides="1" tooltips="1" connect="1" arrows="1" fold="1" page="1" pageScale="1" pageWidth="827" pageHeight="1169" math="0" shadow="0">
      <root>
        <mxCell id="0" />
        <mxCell id="1" parent="0" />
        <mxCell id="xYIFmPE9hQNJvb6_j1BV-1" value="&lt;h1&gt;Labb 3 classdiagram - Start quiz menu&lt;/h1&gt;" style="text;html=1;strokeColor=none;fillColor=none;spacing=5;spacingTop=-20;whiteSpace=wrap;overflow=hidden;rounded=0;" vertex="1" parent="1">
          <mxGeometry x="-800" y="30" width="650" height="50" as="geometry" />
        </mxCell>
        <mxCell id="xYIFmPE9hQNJvb6_j1BV-2" value="&lt;h1&gt;Views&lt;/h1&gt;" style="text;html=1;strokeColor=none;fillColor=none;spacing=5;spacingTop=-20;whiteSpace=wrap;overflow=hidden;rounded=0;align=center;" vertex="1" parent="1">
          <mxGeometry x="-740" y="110" width="100" height="40" as="geometry" />
        </mxCell>
        <mxCell id="xYIFmPE9hQNJvb6_j1BV-3" value="&lt;h1&gt;ViewModels&lt;/h1&gt;" style="text;html=1;strokeColor=none;fillColor=none;spacing=5;spacingTop=-20;whiteSpace=wrap;overflow=hidden;rounded=0;align=center;" vertex="1" parent="1">
          <mxGeometry x="-518" y="110" width="210" height="40" as="geometry" />
        </mxCell>
        <mxCell id="xYIFmPE9hQNJvb6_j1BV-5" value="StartViewModel" style="swimlane;fontStyle=2;align=center;verticalAlign=top;childLayout=stackLayout;horizontal=1;startSize=26;horizontalStack=0;resizeParent=1;resizeLast=0;collapsible=1;marginBottom=0;rounded=0;shadow=0;strokeWidth=1;" vertex="1" parent="1">
          <mxGeometry x="-514" y="190" width="206" height="60" as="geometry">
            <mxRectangle x="230" y="140" width="160" height="26" as="alternateBounds" />
          </mxGeometry>
        </mxCell>
        <mxCell id="xYIFmPE9hQNJvb6_j1BV-6" value="+OnPlayQuizExeCuted() : void" style="text;align=left;verticalAlign=top;spacingLeft=4;spacingRight=4;overflow=hidden;rotatable=0;points=[[0,0.5],[1,0.5]];portConstraint=eastwest;" vertex="1" parent="xYIFmPE9hQNJvb6_j1BV-5">
          <mxGeometry y="26" width="206" height="26" as="geometry" />
        </mxCell>
        <mxCell id="xYIFmPE9hQNJvb6_j1BV-8" style="edgeStyle=orthogonalEdgeStyle;rounded=0;orthogonalLoop=1;jettySize=auto;html=1;entryX=-0.009;entryY=0.131;entryDx=0;entryDy=0;entryPerimeter=0;" edge="1" parent="1" source="xYIFmPE9hQNJvb6_j1BV-9" target="xYIFmPE9hQNJvb6_j1BV-5">
          <mxGeometry relative="1" as="geometry" />
        </mxCell>
        <mxCell id="xYIFmPE9hQNJvb6_j1BV-9" value="StartView" style="swimlane;fontStyle=2;align=center;verticalAlign=top;childLayout=stackLayout;horizontal=1;startSize=26;horizontalStack=0;resizeParent=1;resizeLast=0;collapsible=1;marginBottom=0;rounded=0;shadow=0;strokeWidth=1;" vertex="1" parent="1">
          <mxGeometry x="-800" y="190" width="220" height="60" as="geometry">
            <mxRectangle x="230" y="140" width="160" height="26" as="alternateBounds" />
          </mxGeometry>
        </mxCell>
        <mxCell id="xYIFmPE9hQNJvb6_j1BV-10" value="Bindings to properties and buttons" style="text;html=1;align=center;verticalAlign=middle;resizable=0;points=[];autosize=1;strokeColor=none;fillColor=none;" vertex="1" parent="xYIFmPE9hQNJvb6_j1BV-9">
          <mxGeometry y="26" width="220" height="30" as="geometry" />
        </mxCell>
        <mxCell id="xYIFmPE9hQNJvb6_j1BV-11" style="edgeStyle=orthogonalEdgeStyle;rounded=0;orthogonalLoop=1;jettySize=auto;html=1;entryX=1;entryY=0.5;entryDx=0;entryDy=0;" edge="1" parent="1" source="xYIFmPE9hQNJvb6_j1BV-6">
          <mxGeometry relative="1" as="geometry">
            <mxPoint x="-580" y="229" as="targetPoint" />
          </mxGeometry>
        </mxCell>
      </root>
    </mxGraphModel>
  </diagram>
</mxfile>
